# xmcd
#
# Track frame offsets: 
#        150
#        19675
#        47240
#        64485
#        86380
#        106515
#        119462
#        137155
#        157835
#        172170
#        189900
#        207887
#
# Disc length: 3069 seconds
#
# Revision: 0
# Processed by: cddbd v1.4PL0 Copyright (c) Steve Scherf et al.
# Submitted via: ExactAudioCopy v0.90b3
#
DISCID=9c0bfb0c
DTITLE=Nina Simone - The Nina Simone Collection - Her Golden Greats
DYEAR=1998
DGENRE=Blues
TTITLE0=House of the Rising Sun
TTITLE1=Gin House Blues
TTITLE2=Don't Let Me Be Misunderstood
TTITLE3=Whe I Was A Young Girl
TTITLE4=The Way I Love You
TTITLE5=Zungo
TTITLE6=Backlash Blues
TTITLE7=Just In Time
TTITLE8=Please Read Me
TTITLE9=See-Line Woman
TTITLE10=If He Changed My Name
TTITLE11=He Was Too Good To Me
EXTD=
EXTT0=
EXTT1=
EXTT2=
EXTT3=
EXTT4=
EXTT5=
EXTT6=
EXTT7=
EXTT8=
EXTT9=
EXTT10=
EXTT11=
PLAYORDER=
